HIERARCHY
ROOT joint_Root
{
  OFFSET 0 0 0
  CHANNELS 6 Xposition Yposition Zposition Zrotation Xrotation Yrotation
  JOINT Hips
  {
    OFFSET -11.2566 91.3362 32.6117
    CHANNELS 6 Xposition Yposition Zposition Zrotation Xrotation Yrotation
    JOINT Spine
    {
      OFFSET 15.7357 0 0
      CHANNELS 6 Xposition Yposition Zposition Zrotation Xrotation Yrotation
      JOINT Chest
      {
        OFFSET 8.98455 -0.406207 0
        CHANNELS 6 Xposition Yposition Zposition Zrotation Xrotation Yrotation
        JOINT Neck
        {
          OFFSET 16.3773 0 0
          CHANNELS 6 Xposition Yposition Zposition Zrotation Xrotation Yrotation
          JOINT Head
          {
            OFFSET 6.45672 0 0
            CHANNELS 6 Xposition Yposition Zposition Zrotation Xrotation Yrotation
            End Site
            {
              OFFSET 0 0 0
            }
          }
        }
        JOINT Shoulder_L
        {
          OFFSET 12.9942 -0.242716 4.98039
          CHANNELS 6 Xposition Yposition Zposition Zrotation Xrotation Yrotation
          JOINT UpperArm_L
          {
            OFFSET 5.34809 0 0
            CHANNELS 6 Xposition Yposition Zposition Zrotation Xrotation Yrotation
            JOINT LowerArm_L
            {
              OFFSET 24.3286 1.87007e-05 0
              CHANNELS 6 Xposition Yposition Zposition Zrotation Xrotation Yrotation
              JOINT Hand_L
              {
                OFFSET 22.2916 0 0
                CHANNELS 6 Xposition Yposition Zposition Zrotation Xrotation Yrotation
                End Site
                {
                  OFFSET 0 0 0
                }
              }
            }
          }
        }
        JOINT Shoulder_R
        {
          OFFSET 12.9945 -0.242716 -4.98039
          CHANNELS 6 Xposition Yposition Zposition Zrotation Xrotation Yrotation
          JOINT UpperArm_R
          {
            OFFSET -5.34813 0 0
            CHANNELS 6 Xposition Yposition Zposition Zrotation Xrotation Yrotation
            JOINT LowerArm_R
            {
              OFFSET -24.3289 0.000322201 0
              CHANNELS 6 Xposition Yposition Zposition Zrotation Xrotation Yrotation
              JOINT Hand_R
              {
                OFFSET -22.2915 -0.000108084 0
                CHANNELS 6 Xposition Yposition Zposition Zrotation Xrotation Yrotation
                End Site
                {
                  OFFSET 0 0 0
                }
              }
            }
          }
        }
      }
    }
    JOINT UpperLeg_L
    {
      OFFSET -2.19248 -6.46944 0
      CHANNELS 6 Xposition Yposition Zposition Zrotation Xrotation Yrotation
      JOINT LowerLeg_L
      {
        OFFSET 39.0811 0 -1.23785e-05
        CHANNELS 6 Xposition Yposition Zposition Zrotation Xrotation Yrotation
        JOINT Foot_L
        {
          OFFSET 40.9854 0 -1.26872e-05
          CHANNELS 6 Xposition Yposition Zposition Zrotation Xrotation Yrotation
          JOINT Toes_L
          {
            OFFSET 11.7543 0 0
            CHANNELS 6 Xposition Yposition Zposition Zrotation Xrotation Yrotation
            End Site
            {
              OFFSET 0 0 0
            }
          }
        }
      }
    }
    JOINT UpperLeg_R
    {
      OFFSET -2.19251 6.46944 0
      CHANNELS 6 Xposition Yposition Zposition Zrotation Xrotation Yrotation
      JOINT LowerLeg_R
      {
        OFFSET -39.0811 -0.00228153 -0.0401928
        CHANNELS 6 Xposition Yposition Zposition Zrotation Xrotation Yrotation
        JOINT Foot_R
        {
          OFFSET -40.9854 0 0
          CHANNELS 6 Xposition Yposition Zposition Zrotation Xrotation Yrotation
          JOINT Toes_R
          {
            OFFSET -11.7543 0 0
            CHANNELS 6 Xposition Yposition Zposition Zrotation Xrotation Yrotation
            End Site
            {
              OFFSET 0 0 0
            }
          }
        }
      }
    }
  }
}
MOTION
Frames:	4
Frame Time:	0.0333333
0 0 0 0 0 -0 1.70155 92.9004 -191.061 90.5103 -4.93988 8.53216 15.7357 5.1072e-06 -5.51765e-07 97.3382 84.3334 -98.2129 8.98455 -0.406207 -4.3199e-07 0.138944 0.779878 -0.293933 16.3773 -1.3905e-06 -6.99897e-07 34.1762 -0.621245 -3.84476 6.45672 -1.25837e-06 -1.02172e-07 15.3719 -0.794603 2.01559 12.9942 -0.242716 4.98039 -91.4884 8.46296 -79.2831 5.34809 -7.22636e-06 -6.2814e-07 -67.0679 -0.420441 7.05933 24.3286 1.87007e-05 4.90208e-06 -5.69484e-05 1.34918e-05 -10.2124 22.2916 -9.88446e-07 4.63217e-06 -17.8713 36.549 18.5451 12.9945 -0.242716 -4.98039 89.8399 4.77419 -89.3473 -5.34813 -1.25947e-06 -3.79883e-06 -71.946 13.941 5.48379 -24.3289 0.000322201 -8.65921e-06 -0.000123423 -5.92051e-05 -11.4365 -22.2915 -0.000108084 -4.47941e-06 -16.7843 30.919 14.2898 -2.19248 -6.46944 -1.22533e-07 174.53 -2.42894 -0.0967209 39.0811 -6.73843e-06 -1.23785e-05 0.0881961 -0.194809 20.5047 40.9854 -6.48686e-06 -1.26872e-05 1.38357 -37.4297 -61.3983 11.7543 -2.30145e-07 3.05095e-06 -0.00215184 -0.00266471 -16.5791 -2.19251 6.46944 -1.45247e-06 176.342 -11.5348 148.044 -39.0811 -0.00228153 -0.0401928 0.0452814 -0.1357 30.0199 -40.9854 7.72618e-06 5.99936e-06 -3.9768 -8.09746 5.82093 -11.7543 -5.6619e-06 -5.58687e-06 -9.11063e-06 1.4744e-05 -16.5734 
0 0 0 0 0 -0 1.70968 92.904 -190.984 90.4881 -4.82863 8.46708 15.7357 5.1072e-06 -5.51765e-07 97.2104 84.5092 -98.13 8.98455 -0.406207 -4.3199e-07 0.16185 0.749169 -0.188891 16.3773 -1.3905e-06 -6.99897e-07 34.2539 -0.607064 -3.78595 6.45672 -1.25837e-06 -1.02172e-07 15.3747 -0.790574 2.06172 12.9942 -0.242716 4.98039 -91.4738 8.47961 -79.3575 5.34809 -7.22636e-06 -6.2814e-07 -67.0456 -0.409988 7.35962 24.3286 1.87007e-05 4.90208e-06 -4.02018e-05 9.60686e-06 -10.3579 22.2916 -9.88446e-07 4.63217e-06 -17.5611 36.397 18.1979 12.9945 -0.242716 -4.98039 89.8445 4.85958 -89.3281 -5.34813 -1.25947e-06 -3.79883e-06 -71.8647 13.9937 5.38408 -24.3289 0.000322201 -8.65921e-06 -0.00021793 -5.45139e-05 -11.4973 -22.2915 -0.000108084 -4.47941e-06 -16.774 30.655 14.2003 -2.19248 -6.46944 -1.22533e-07 174.549 -2.4605 -0.0861135 39.0811 -6.73843e-06 -1.23785e-05 0.0883961 -0.195816 20.4657 40.9854 -6.48686e-06 -1.26872e-05 1.42883 -37.2884 -61.4109 11.7543 -2.30145e-07 3.05095e-06 -0.00222814 -0.00279016 -16.5791 -2.19251 6.46944 -1.45247e-06 176.31 -11.5094 147.94 -39.0811 -0.00228153 -0.0401928 0.0417272 -0.132351 30.1551 -40.9854 7.72618e-06 5.99936e-06 -3.94936 -8.0168 5.81157 -11.7543 -5.6619e-06 -5.58687e-06 8.65676e-06 6.28988e-06 -16.5734 
0 0 0 0 0 -0 1.71021 92.9073 -190.923 90.4779 -4.72719 8.41568 15.7357 5.1072e-06 -5.51765e-07 97.1178 84.6642 -98.1063 8.98455 -0.406207 -4.3199e-07 0.183237 0.72643 -0.0901112 16.3773 -1.3905e-06 -6.99897e-07 34.3335 -0.589156 -3.63094 6.45672 -1.25837e-06 -1.02172e-07 15.4135 -0.787684 2.1247 12.9942 -0.242716 4.98039 -91.4603 8.46656 -79.4185 5.34809 -7.22636e-06 -6.2814e-07 -67.0365 -0.403685 7.64179 24.3286 1.87007e-05 4.90208e-06 -3.35814e-05 3.60829e-06 -10.4435 22.2916 -9.88446e-07 4.63217e-06 -17.3828 36.2604 17.9856 12.9945 -0.242716 -4.98039 89.8487 4.93841 -89.311 -5.34813 -1.25947e-06 -3.79883e-06 -71.7859 14.0226 5.2852 -24.3289 0.000322201 -8.65921e-06 -0.000168717 -7.37873e-05 -11.5445 -22.2915 -0.000108084 -4.47941e-06 -16.4867 30.4739 14.0347 -2.19248 -6.46944 -1.22534e-07 174.562 -2.48217 -0.0575319 39.0811 -6.73843e-06 -1.23785e-05 0.0882931 -0.196419 20.3983 40.9854 -6.48686e-06 -1.26872e-05 1.45483 -37.1659 -61.4123 11.7543 -2.30145e-07 3.05095e-06 -0.00223743 -0.0027977 -16.5792 -2.19251 6.46944 -1.45247e-06 176.293 -11.5035 147.853 -39.0811 -0.00228153 -0.0401928 0.043519 -0.131329 30.2753 -40.9854 7.72618e-06 5.99936e-06 -3.89281 -8.05607 5.81352 -11.7543 -5.6619e-06 -5.58687e-06 8.91637e-06 6.73118e-06 -16.5734 
0 0 0 0 0 -0 1.70406 92.9065 -190.878 90.485 -4.62952 8.37903 15.7357 5.1072e-06 -5.51765e-07 96.9941 84.7935 -98.0727 8.98455 -0.406207 -4.3199e-07 0.204708 0.70533 -0.0151083 16.3773 -1.3905e-06 -6.99897e-07 34.4039 -0.588382 -3.40927 6.45672 -1.25837e-06 -1.02172e-07 15.4962 -0.812071 2.20433 12.9942 -0.242716 4.98039 -91.4482 8.44895 -79.4678 5.34809 -7.22636e-06 -6.2814e-07 -67.0212 -0.417345 7.83868 24.3286 1.87007e-05 4.90208e-06 1.54054e-05 3.49678e-06 -10.4509 22.2916 -9.88446e-07 4.63217e-06 -17.4016 36.2184 17.9607 12.9945 -0.242716 -4.98039 89.8517 4.99478 -89.2908 -5.34813 -1.25947e-06 -3.79883e-06 -71.7255 14.0259 5.20293 -24.3289 0.000322201 -8.65921e-06 -0.000194016 -6.51822e-05 -11.5941 -22.2915 -0.000108084 -4.47941e-06 -16.0242 30.3404 13.7937 -2.19248 -6.46944 -1.22533e-07 174.567 -2.49794 -0.0305919 39.0811 -6.73843e-06 -1.23785e-05 0.0878433 -0.195934 20.3465 40.9854 -6.48686e-06 -1.26872e-05 1.41964 -37.0482 -61.4463 11.7543 -2.30145e-07 3.05095e-06 -0.00210637 -0.00264117 -16.579 -2.19251 6.46944 -1.45247e-06 176.281 -11.4977 147.755 -39.0811 -0.00228153 -0.0401928 0.0428187 -0.131921 30.426 -40.9854 7.72618e-06 5.99936e-06 -3.80308 -8.19778 5.80995 -11.7543 -5.6619e-06 -5.58687e-06 1.33676e-05 6.1645e-06 -16.5734 
